<mxfile host="app.diagrams.net" modified="2024-03-23T08:01:26.732Z" agent="Mozilla/5.0 (Windows NT 10.0; Win64; x64) AppleWebKit/537.36 (KHTML, like Gecko) Chrome/123.0.0.0 Safari/537.36" etag="gZevb1BU7vn1Ae1cUuFB" version="24.0.7" type="device">
  <diagram id="C5RBs43oDa-KdzZeNtuy" name="Page-1">
    <mxGraphModel dx="880" dy="434" grid="1" gridSize="10" guides="1" tooltips="1" connect="1" arrows="1" fold="1" page="1" pageScale="1" pageWidth="3300" pageHeight="4681" math="0" shadow="0">
      <root>
        <mxCell id="WIyWlLk6GJQsqaUBKTNV-0" />
        <mxCell id="WIyWlLk6GJQsqaUBKTNV-1" parent="WIyWlLk6GJQsqaUBKTNV-0" />
        <mxCell id="5FItM-umTJFi1asZ5y_I-9" value="" style="edgeStyle=orthogonalEdgeStyle;rounded=0;orthogonalLoop=1;jettySize=auto;html=1;" edge="1" parent="WIyWlLk6GJQsqaUBKTNV-1" source="WIyWlLk6GJQsqaUBKTNV-3" target="5FItM-umTJFi1asZ5y_I-8">
          <mxGeometry relative="1" as="geometry" />
        </mxCell>
        <mxCell id="WIyWlLk6GJQsqaUBKTNV-3" value="Start" style="rounded=1;whiteSpace=wrap;html=1;fontSize=12;glass=0;strokeWidth=1;shadow=0;" parent="WIyWlLk6GJQsqaUBKTNV-1" vertex="1">
          <mxGeometry x="160" y="80" width="120" height="40" as="geometry" />
        </mxCell>
        <mxCell id="5FItM-umTJFi1asZ5y_I-5" value="" style="edgeStyle=orthogonalEdgeStyle;rounded=0;orthogonalLoop=1;jettySize=auto;html=1;" edge="1" parent="WIyWlLk6GJQsqaUBKTNV-1" target="5FItM-umTJFi1asZ5y_I-4">
          <mxGeometry relative="1" as="geometry">
            <mxPoint x="220" y="250" as="sourcePoint" />
          </mxGeometry>
        </mxCell>
        <mxCell id="5FItM-umTJFi1asZ5y_I-17" value="" style="edgeStyle=orthogonalEdgeStyle;rounded=0;orthogonalLoop=1;jettySize=auto;html=1;" edge="1" parent="WIyWlLk6GJQsqaUBKTNV-1" source="5FItM-umTJFi1asZ5y_I-4" target="5FItM-umTJFi1asZ5y_I-16">
          <mxGeometry relative="1" as="geometry" />
        </mxCell>
        <mxCell id="5FItM-umTJFi1asZ5y_I-4" value="Generate two random&lt;div&gt;cards for user and computer&lt;/div&gt;" style="whiteSpace=wrap;html=1;rounded=1;glass=0;strokeWidth=1;shadow=0;" vertex="1" parent="WIyWlLk6GJQsqaUBKTNV-1">
          <mxGeometry x="160" y="330" width="120" height="60" as="geometry" />
        </mxCell>
        <mxCell id="5FItM-umTJFi1asZ5y_I-8" value="Generate a list of cards from value 2 to 11 with 10 occuring 4 times" style="whiteSpace=wrap;html=1;rounded=1;glass=0;strokeWidth=1;shadow=0;" vertex="1" parent="WIyWlLk6GJQsqaUBKTNV-1">
          <mxGeometry x="160" y="190" width="120" height="60" as="geometry" />
        </mxCell>
        <mxCell id="5FItM-umTJFi1asZ5y_I-19" value="" style="edgeStyle=orthogonalEdgeStyle;rounded=0;orthogonalLoop=1;jettySize=auto;html=1;" edge="1" parent="WIyWlLk6GJQsqaUBKTNV-1" source="5FItM-umTJFi1asZ5y_I-16" target="5FItM-umTJFi1asZ5y_I-18">
          <mxGeometry relative="1" as="geometry" />
        </mxCell>
        <mxCell id="5FItM-umTJFi1asZ5y_I-16" value="Show user&#39;s both cards and computer&#39;s first card on screen" style="whiteSpace=wrap;html=1;rounded=1;glass=0;strokeWidth=1;shadow=0;" vertex="1" parent="WIyWlLk6GJQsqaUBKTNV-1">
          <mxGeometry x="160" y="470" width="120" height="60" as="geometry" />
        </mxCell>
        <mxCell id="5FItM-umTJFi1asZ5y_I-21" value="" style="edgeStyle=orthogonalEdgeStyle;rounded=0;orthogonalLoop=1;jettySize=auto;html=1;" edge="1" parent="WIyWlLk6GJQsqaUBKTNV-1" source="5FItM-umTJFi1asZ5y_I-18" target="5FItM-umTJFi1asZ5y_I-20">
          <mxGeometry relative="1" as="geometry" />
        </mxCell>
        <mxCell id="5FItM-umTJFi1asZ5y_I-33" value="" style="edgeStyle=orthogonalEdgeStyle;rounded=0;orthogonalLoop=1;jettySize=auto;html=1;" edge="1" parent="WIyWlLk6GJQsqaUBKTNV-1" source="5FItM-umTJFi1asZ5y_I-18" target="5FItM-umTJFi1asZ5y_I-32">
          <mxGeometry relative="1" as="geometry" />
        </mxCell>
        <mxCell id="5FItM-umTJFi1asZ5y_I-18" value="Calculate the user&#39;s and computer&#39;s score" style="whiteSpace=wrap;html=1;rounded=1;glass=0;strokeWidth=1;shadow=0;" vertex="1" parent="WIyWlLk6GJQsqaUBKTNV-1">
          <mxGeometry x="160" y="610" width="120" height="60" as="geometry" />
        </mxCell>
        <mxCell id="5FItM-umTJFi1asZ5y_I-27" value="" style="rounded=0;orthogonalLoop=1;jettySize=auto;html=1;entryX=0.088;entryY=0.45;entryDx=0;entryDy=0;entryPerimeter=0;" edge="1" parent="WIyWlLk6GJQsqaUBKTNV-1" source="5FItM-umTJFi1asZ5y_I-20" target="5FItM-umTJFi1asZ5y_I-26">
          <mxGeometry relative="1" as="geometry">
            <Array as="points" />
          </mxGeometry>
        </mxCell>
        <mxCell id="5FItM-umTJFi1asZ5y_I-28" value="No" style="edgeLabel;html=1;align=center;verticalAlign=middle;resizable=0;points=[];" vertex="1" connectable="0" parent="5FItM-umTJFi1asZ5y_I-27">
          <mxGeometry x="-0.25" y="4" relative="1" as="geometry">
            <mxPoint as="offset" />
          </mxGeometry>
        </mxCell>
        <mxCell id="5FItM-umTJFi1asZ5y_I-20" value="Computer&#39;s score = 21" style="rhombus;whiteSpace=wrap;html=1;rounded=1;glass=0;strokeWidth=1;shadow=0;" vertex="1" parent="WIyWlLk6GJQsqaUBKTNV-1">
          <mxGeometry x="380" y="600" width="80" height="80" as="geometry" />
        </mxCell>
        <mxCell id="5FItM-umTJFi1asZ5y_I-22" value="Win" style="rounded=1;whiteSpace=wrap;html=1;" vertex="1" parent="WIyWlLk6GJQsqaUBKTNV-1">
          <mxGeometry x="370" y="1060" width="120" height="60" as="geometry" />
        </mxCell>
        <mxCell id="5FItM-umTJFi1asZ5y_I-30" value="" style="edgeStyle=orthogonalEdgeStyle;rounded=0;orthogonalLoop=1;jettySize=auto;html=1;" edge="1" parent="WIyWlLk6GJQsqaUBKTNV-1" source="5FItM-umTJFi1asZ5y_I-26" target="5FItM-umTJFi1asZ5y_I-29">
          <mxGeometry relative="1" as="geometry" />
        </mxCell>
        <mxCell id="5FItM-umTJFi1asZ5y_I-31" value="Yes" style="edgeLabel;html=1;align=center;verticalAlign=middle;resizable=0;points=[];" vertex="1" connectable="0" parent="5FItM-umTJFi1asZ5y_I-30">
          <mxGeometry x="-0.42" y="2" relative="1" as="geometry">
            <mxPoint as="offset" />
          </mxGeometry>
        </mxCell>
        <mxCell id="5FItM-umTJFi1asZ5y_I-26" value="Computer&#39;s score &amp;gt; 21" style="rhombus;whiteSpace=wrap;html=1;rounded=1;glass=0;strokeWidth=1;shadow=0;" vertex="1" parent="WIyWlLk6GJQsqaUBKTNV-1">
          <mxGeometry x="540" y="600" width="80" height="80" as="geometry" />
        </mxCell>
        <mxCell id="5FItM-umTJFi1asZ5y_I-29" value="Lose" style="whiteSpace=wrap;html=1;rounded=1;glass=0;strokeWidth=1;shadow=0;" vertex="1" parent="WIyWlLk6GJQsqaUBKTNV-1">
          <mxGeometry x="520" y="1060" width="120" height="60" as="geometry" />
        </mxCell>
        <mxCell id="5FItM-umTJFi1asZ5y_I-38" style="edgeStyle=orthogonalEdgeStyle;rounded=0;orthogonalLoop=1;jettySize=auto;html=1;" edge="1" parent="WIyWlLk6GJQsqaUBKTNV-1" source="5FItM-umTJFi1asZ5y_I-32">
          <mxGeometry relative="1" as="geometry">
            <mxPoint x="220" y="980" as="targetPoint" />
          </mxGeometry>
        </mxCell>
        <mxCell id="5FItM-umTJFi1asZ5y_I-32" value="User&#39;s score=21" style="rhombus;whiteSpace=wrap;html=1;rounded=1;glass=0;strokeWidth=1;shadow=0;" vertex="1" parent="WIyWlLk6GJQsqaUBKTNV-1">
          <mxGeometry x="180" y="740" width="80" height="80" as="geometry" />
        </mxCell>
        <mxCell id="5FItM-umTJFi1asZ5y_I-36" style="edgeStyle=orthogonalEdgeStyle;rounded=0;orthogonalLoop=1;jettySize=auto;html=1;exitX=0.5;exitY=1;exitDx=0;exitDy=0;entryX=0.442;entryY=0.067;entryDx=0;entryDy=0;entryPerimeter=0;" edge="1" parent="WIyWlLk6GJQsqaUBKTNV-1" source="5FItM-umTJFi1asZ5y_I-20" target="5FItM-umTJFi1asZ5y_I-22">
          <mxGeometry relative="1" as="geometry" />
        </mxCell>
        <mxCell id="5FItM-umTJFi1asZ5y_I-37" value="Yes" style="edgeLabel;html=1;align=center;verticalAlign=middle;resizable=0;points=[];" vertex="1" connectable="0" parent="5FItM-umTJFi1asZ5y_I-36">
          <mxGeometry x="-0.354" y="1" relative="1" as="geometry">
            <mxPoint as="offset" />
          </mxGeometry>
        </mxCell>
        <mxCell id="5FItM-umTJFi1asZ5y_I-39" style="edgeStyle=orthogonalEdgeStyle;rounded=0;orthogonalLoop=1;jettySize=auto;html=1;" edge="1" parent="WIyWlLk6GJQsqaUBKTNV-1">
          <mxGeometry relative="1" as="geometry">
            <mxPoint x="220" y="980" as="targetPoint" />
            <mxPoint x="220" y="820" as="sourcePoint" />
          </mxGeometry>
        </mxCell>
        <mxCell id="5FItM-umTJFi1asZ5y_I-40" value="" style="rounded=0;orthogonalLoop=1;jettySize=auto;html=1;entryX=0.088;entryY=0.45;entryDx=0;entryDy=0;entryPerimeter=0;" edge="1" parent="WIyWlLk6GJQsqaUBKTNV-1">
          <mxGeometry relative="1" as="geometry">
            <mxPoint x="459" y="639" as="sourcePoint" />
            <mxPoint x="547" y="636" as="targetPoint" />
            <Array as="points" />
          </mxGeometry>
        </mxCell>
        <mxCell id="5FItM-umTJFi1asZ5y_I-41" value="No" style="edgeLabel;html=1;align=center;verticalAlign=middle;resizable=0;points=[];" vertex="1" connectable="0" parent="5FItM-umTJFi1asZ5y_I-40">
          <mxGeometry x="-0.25" y="4" relative="1" as="geometry">
            <mxPoint as="offset" />
          </mxGeometry>
        </mxCell>
      </root>
    </mxGraphModel>
  </diagram>
</mxfile>
